<svg width="823" height="861" viewBox="0 0 823 861" fill="none" xmlns="http://www.w3.org/2000/svg">
<path d="M629.337 2.87532C385.301 -23.5905 367.52 138.954 335.2 231.563C323.074 266.289 302.323 291.98 281.112 310.532C253.417 334.743 220.576 349.546 186.304 354.886C-34.1897 389.238 -45.5331 654.616 84.6931 766.428C214.919 878.24 548.822 906.023 963.886 766.428C1180.45 284.481 873.384 29.3273 629.337 2.87532Z" fill="#F2F7FF"/>
<path d="M207.516 80.3652C80.4225 81.2645 46.4577 227.069 115.393 309.053C210.745 422.457 472.574 78.4699 207.516 80.3652Z" fill="#F2F7FF"/>
<path d="M232.757 614.441C250.335 599.679 273.674 600.482 271.827 602.297C269.98 604.112 264.505 608.49 268.254 618.5C272.003 628.51 267.913 642.513 261.119 650.906C254.326 659.299 260.845 659.552 251.588 678.373C242.332 697.205 205.966 719.502 205.966 719.502L184.397 717.962C184.397 717.962 172.535 672.07 188.574 659.574C204.614 647.078 207.549 644.471 210.176 636.65C212.793 628.818 221.873 617.345 232.757 614.441Z" fill="#B9CFFC"/>
<path d="M197.292 715.817C197.237 715.817 197.182 715.806 197.127 715.795C196.413 715.685 195.929 715.234 196.061 714.794C201.964 693.531 223.643 646.33 256.667 610.151C257.019 609.766 257.821 609.656 258.448 609.909C259.086 610.162 259.317 610.668 258.965 611.064C226.095 647.067 204.526 694.037 198.644 715.19C198.523 715.597 197.941 715.861 197.292 715.817Z" fill="#3B424A"/>
<path d="M135.828 468.943C112.929 433.611 80.4874 431.708 82.8729 435.998C85.2585 440.299 92.4152 450.793 86.2149 472.276C80.0147 493.759 84.3021 525.263 92.8989 544.843C101.485 564.412 92.4262 563.939 103.398 606.905C114.369 649.871 162.564 704.772 162.564 704.772H192.62C192.62 704.772 213.617 605.475 192.62 575.39C171.622 545.316 167.808 539.112 164.949 521.446C162.069 503.802 150.614 477.061 135.828 468.943Z" fill="#B9CFFC"/>
<path d="M174.942 698.019C175.019 698.019 175.096 698.019 175.173 698.008C176.174 697.876 176.888 696.963 176.756 695.962C170.677 648.167 145.304 540.675 103.101 455.722C102.65 454.82 101.551 454.446 100.649 454.897C99.7477 455.348 99.3739 456.448 99.8247 457.35C141.83 541.907 167.071 648.86 173.128 696.424C173.249 697.348 174.041 698.019 174.942 698.019Z" fill="#3B424A"/>
<path d="M74.3971 577.679C46.8038 562.158 14.2304 568.472 17.1876 570.452C20.1448 572.432 28.6977 576.964 25.4217 591.022C22.1456 605.08 30.6875 622.625 41.8897 632.173C53.092 641.71 44.0004 643.514 60.7433 666.273C77.4862 689.032 132.915 710.262 132.915 710.262L162.85 703.365C162.85 703.365 170.325 640.148 145.348 627.267C120.371 614.397 115.732 611.614 110.488 601.89C105.244 592.155 90.2275 579.065 74.3971 577.679Z" fill="#B9CFFC"/>
<path d="M144.348 703.442C144.425 703.42 144.502 703.409 144.579 703.376C145.557 703.068 146.14 702.375 145.876 701.814C133.355 675.095 93.5476 617.697 40.0099 577.404C39.4382 576.975 38.2949 577.008 37.4594 577.481C36.6239 577.954 36.404 578.68 36.9757 579.109C90.2496 619.204 129.87 676.327 142.325 702.914C142.567 703.431 143.446 703.651 144.348 703.442Z" fill="#3B424A"/>
<path d="M711.924 509.06C731.02 479.602 758.075 478.018 756.085 481.593C754.095 485.179 748.126 493.935 753.303 511.843C758.47 529.751 754.898 556.03 747.73 572.343C740.573 588.667 748.126 588.26 738.979 624.087C729.833 659.914 689.652 705.685 689.652 705.685H664.587C664.587 705.685 647.086 622.888 664.587 597.819C682.088 572.739 685.277 567.569 687.662 552.84C690.048 538.122 699.59 515.836 711.924 509.06Z" fill="#B9CFFC"/>
<path d="M679.307 700.053C679.241 700.053 679.175 700.053 679.109 700.042C678.274 699.932 677.68 699.173 677.79 698.337C682.858 658.484 704.009 568.867 739.199 498.038C739.573 497.279 740.485 496.971 741.244 497.356C742.002 497.73 742.31 498.643 741.925 499.402C706.911 569.901 685.859 659.078 680.813 698.733C680.714 699.492 680.066 700.053 679.307 700.053Z" fill="#3B424A"/>
<path d="M763.142 599.723C786.152 586.776 813.305 592.045 810.843 593.695C808.38 595.345 801.245 599.129 803.972 610.844C806.698 622.57 799.574 637.2 790.241 645.153C780.897 653.106 788.482 654.613 774.521 673.577C760.559 692.552 714.354 710.251 714.354 710.251L689.388 704.509C689.388 704.509 683.155 651.797 703.976 641.061C724.798 630.325 728.667 628.015 733.043 619.897C737.418 611.79 749.939 600.867 763.142 599.723Z" fill="#B9CFFC"/>
<path d="M704.811 704.575C704.745 704.564 704.679 704.542 704.625 704.52C703.811 704.267 703.316 703.684 703.536 703.211C713.98 680.936 747.169 633.075 791.802 599.492C792.275 599.129 793.231 599.162 793.935 599.558C794.638 599.954 794.814 600.559 794.341 600.922C749.928 634.351 716.893 681.981 706.504 704.146C706.296 704.564 705.57 704.751 704.811 704.575Z" fill="#3B424A"/>
<path d="M810.722 721.923H73.1331V715.081C73.1331 704.752 80.2663 696.381 89.0679 696.381H794.787C803.589 696.381 810.722 704.752 810.722 715.081V721.923Z" fill="#80A3E7"/>
<path d="M419.446 523.57L416.884 584.752C416.654 590.263 421.809 594.421 427.141 593.035L495.344 575.314C486.835 542.996 459.978 520.413 428.911 515.804C424.052 515.078 419.644 518.675 419.446 523.57Z" fill="#D1DBED"/>
<path d="M406.804 692.728C450.052 681.332 475.864 637.013 464.475 593.75C464.453 593.662 464.42 593.574 464.398 593.475L385.553 614.254L406.243 692.86C406.441 692.816 406.628 692.783 406.804 692.728Z" fill="#70C0EE"/>
<path d="M370.042 693.784C381.673 696.16 393.996 696.006 406.254 692.871L385.564 614.265L370.042 693.784Z" fill="#75A6F5"/>
<path d="M385.564 614.253L305.906 603.781C304.565 613.934 305.115 624.505 307.885 635.021C315.998 665.843 340.81 687.81 370.042 693.783L385.564 614.253Z" fill="#FFEFAD"/>
<path d="M365.557 536.033C332.818 544.657 310.084 572.157 305.906 603.782L385.564 614.254L388.95 533.404C381.255 533.151 373.395 533.976 365.557 536.033Z" fill="#3A85F6"/>
<path d="M408.211 508.709L404.825 589.559L483.746 569.055C474.413 533.613 443.027 509.886 408.211 508.709Z" fill="#43D2E3"/>
<path d="M631.563 350.299C631.574 350.607 631.585 350.915 631.585 351.234C631.585 373.619 613.457 391.758 591.086 391.758C568.714 391.758 550.586 373.619 550.586 351.234C550.586 329.168 568.219 311.227 590.151 310.732V289.766C556.643 290.261 529.633 317.585 529.633 351.234C529.633 385.191 557.149 412.724 591.086 412.724C625.022 412.724 652.538 385.191 652.538 351.234C652.538 350.926 652.516 350.618 652.516 350.299H631.563Z" fill="#D1DBED"/>
<path d="M600.397 276.235C600.089 276.235 599.781 276.257 599.462 276.257V297.223C599.77 297.212 600.078 297.201 600.397 297.201C622.45 297.201 640.38 314.845 640.874 336.79H661.828C661.322 303.262 634.026 276.235 600.397 276.235Z" fill="#D1DBED"/>
<path d="M629.936 345.403C629.947 345.711 629.958 346.019 629.958 346.338C629.958 368.723 611.83 386.862 589.458 386.862C567.087 386.862 548.959 368.723 548.959 346.338C548.959 324.272 566.592 306.331 588.524 305.836V284.87C555.016 285.365 528.005 312.689 528.005 346.338C528.005 380.295 555.522 407.828 589.458 407.828C623.395 407.828 650.911 380.295 650.911 346.338C650.911 346.03 650.889 345.722 650.889 345.403H629.936Z" fill="#5C95FF"/>
<path d="M598.77 271.34C598.462 271.34 598.154 271.362 597.835 271.362V292.328C598.143 292.317 598.451 292.306 598.77 292.306C620.822 292.306 638.753 309.95 639.247 331.895H660.201C659.695 298.367 632.387 271.34 598.77 271.34Z" fill="#45CAFF"/>
<path d="M545.43 368.492C545.43 366.941 544.029 365.687 542.295 365.687C540.562 365.687 539.16 366.941 539.16 368.492C539.16 370.043 540.562 371.297 542.295 371.297C544.029 371.297 545.43 370.043 545.43 368.492Z" fill="#2D71F0"/>
<path d="M541.828 368.117C541.373 368.117 540.943 368.348 540.746 368.733L517.672 412.062H463.889C463.225 412.062 462.684 412.546 462.684 413.14C462.684 413.734 463.225 414.218 463.889 414.218H518.434C518.901 414.218 519.319 413.976 519.516 413.602L542.91 369.657C543.192 369.118 542.947 368.48 542.344 368.227C542.172 368.15 542 368.117 541.828 368.117Z" fill="#2D71F0"/>
<path d="M469.207 380.515H490.793C495.329 380.515 499 384.255 499 388.875V396.839C499 401.459 495.329 405.199 490.793 405.199H469.207C464.671 405.199 461 401.459 461 396.839V388.875C461 384.255 464.671 380.515 469.207 380.515Z" fill="#6BB0FF"/>
<path d="M617.898 285.552C617.898 287.103 619.151 288.357 620.702 288.357C622.252 288.357 623.505 287.103 623.505 285.552C623.505 284.001 622.252 282.747 620.702 282.747C619.151 282.747 617.898 284.001 617.898 285.552Z" fill="#2D71F0"/>
<path d="M621.119 285.926C621.526 285.926 621.911 285.695 622.087 285.31L632.333 264.047H658.409C659.002 264.047 659.486 263.563 659.486 262.969C659.486 262.375 659.002 261.891 658.409 261.891H631.662C631.244 261.891 630.87 262.133 630.695 262.507L620.163 284.386C619.91 284.925 620.13 285.563 620.669 285.816C620.812 285.893 620.965 285.926 621.119 285.926Z" fill="#2D71F0"/>
<path d="M672.194 234.919H650.219C645.601 234.919 641.864 238.659 641.864 243.279V251.243C641.864 255.863 645.601 259.603 650.219 259.603H672.194C676.812 259.603 680.549 255.863 680.549 251.243V243.279C680.549 238.67 676.812 234.919 672.194 234.919Z" fill="#6BB0FF"/>
<path d="M510.141 361.155H346.725C341.316 361.155 336.93 356.766 336.93 351.354V202.48C336.93 197.068 341.316 192.679 346.725 192.679H510.141C515.55 192.679 519.936 197.068 519.936 202.48V351.354C519.947 356.766 515.561 361.155 510.141 361.155Z" fill="#D1DBED"/>
<path d="M495.652 348.34H328.267C323.947 348.34 320.451 344.842 320.451 340.519V187.674C320.451 183.351 323.947 179.853 328.267 179.853H495.652C499.972 179.853 503.468 183.351 503.468 187.674V340.519C503.468 344.842 499.972 348.34 495.652 348.34Z" fill="white"/>
<path d="M463.722 315.898C492.309 287.293 492.31 240.914 463.722 212.309C435.134 183.704 388.783 183.704 360.195 212.309C331.607 240.914 331.607 287.293 360.195 315.898C388.783 344.503 435.134 344.503 463.722 315.898Z" fill="#B1C8F7"/>
<path d="M409.365 238.329C409.739 243.796 405.605 248.526 400.142 248.9C394.678 249.263 389.951 245.138 389.577 239.671C389.214 234.204 393.337 229.474 398.8 229.1C404.264 228.726 408.991 232.862 409.365 238.329Z" fill="#2B1710"/>
<path d="M355.761 311.017C365.161 322.281 377.847 330.619 392.237 334.645C396.734 323.755 394.689 308.784 380.87 291.811C372.57 296.563 364.721 304.098 355.761 311.017Z" fill="#E6EFFF"/>
<path d="M416.885 337.185C434.1 336.019 449.524 328.979 461.331 318.166C458.033 300.698 454.933 290.072 454.933 290.072C445.357 283.791 432.726 282.361 432.726 282.361L408.53 283.021C396.844 284.341 380.453 291.799 380.453 291.799C378.979 295.154 376.902 308.189 374.923 327.296C387.18 334.49 401.648 338.208 416.885 337.185Z" fill="white"/>
<path d="M394.744 238.571C390.995 232.125 393.271 220.564 401.186 221.367C409.112 222.17 428.724 223.028 431.473 231.74C433.177 237.163 431.989 251.243 430.725 256.292C429.45 261.352 419.138 264.729 419.138 264.729L394.744 238.571Z" fill="#2B1710"/>
<path d="M432.682 282.317C427.141 277.444 427.845 261.395 427.845 261.395L428.142 253.97C424.69 256.698 422.744 252.364 423.063 249.537C423.393 246.71 423.689 240.352 423.689 240.352C423.689 240.352 419.171 242.893 418.654 236.898C416.291 238.284 405.88 242.783 394.733 238.559C394.304 243.278 395.14 249.405 395.865 255.378C397.404 268.017 396.888 276.773 408.046 277.961C408.211 280.414 408.277 282.02 407.595 283.043C412.036 288.202 430.846 283.219 432.682 282.317Z" fill="#FFB39B"/>
<path d="M401.417 250.165C401.527 251.727 400.911 253.036 400.054 253.091C399.196 253.146 398.416 251.925 398.317 250.374C398.207 248.812 398.822 247.503 399.68 247.448C400.526 247.393 401.307 248.603 401.417 250.165Z" fill="#2B1710"/>
<path d="M413.499 249.768C413.609 251.33 412.993 252.639 412.135 252.694C411.278 252.749 410.497 251.528 410.398 249.977C410.289 248.415 410.904 247.106 411.762 247.051C412.608 246.985 413.389 248.206 413.499 249.768Z" fill="#2B1710"/>
<path d="M411.959 254.091C411.926 254.091 411.883 254.091 411.85 254.102C411.707 254.102 411.586 253.992 411.575 253.849C411.575 253.706 411.685 253.574 411.828 253.574C413.246 253.53 414.345 252.397 414.334 251C414.334 250.857 414.444 250.736 414.598 250.736C414.741 250.736 414.862 250.857 414.862 251C414.873 252.639 413.597 253.97 411.959 254.091Z" fill="#E0B3A8"/>
<path d="M403.077 258.679C401.274 258.756 397.031 258.888 396.525 258.547C396.459 258.503 396.393 258.393 396.382 258.316C396.327 257.931 396.954 257.106 399.317 254.29C400.79 252.541 402.615 250.352 402.736 249.78C403.066 248.273 402.857 246.601 402.087 244.687C402.033 244.555 402.098 244.401 402.23 244.346C402.362 244.291 402.516 244.357 402.571 244.489C403.385 246.513 403.605 248.284 403.253 249.901C403.11 250.55 401.758 252.2 399.713 254.631C398.603 255.962 397.239 257.59 396.943 258.14C397.657 258.272 400.471 258.25 403.033 258.14C403.176 258.129 403.297 258.25 403.308 258.393C403.33 258.547 403.22 258.668 403.077 258.679Z" fill="#2B1710"/>
<path d="M410.354 257.666C409.651 258.832 408.925 259.679 408.727 259.558C408.529 259.437 408.936 258.403 409.64 257.237C410.343 256.071 411.069 255.224 411.267 255.345C411.465 255.466 411.058 256.5 410.354 257.666Z" fill="#FF7E57"/>
<path d="M412.685 257.568C411.981 258.734 411.256 259.581 411.058 259.46C410.86 259.339 411.267 258.305 411.971 257.139C412.674 255.973 413.4 255.126 413.598 255.247C413.795 255.357 413.389 256.402 412.685 257.568Z" fill="#FF7E57"/>
<path d="M415.115 257.348C414.411 258.514 413.685 259.361 413.488 259.24C413.29 259.119 413.696 258.085 414.4 256.919C415.104 255.753 415.829 254.906 416.027 255.027C416.214 255.148 415.807 256.182 415.115 257.348Z" fill="#FF7E57"/>
<path d="M405.572 268.832C404.77 268.887 403.748 268.843 402.703 268.535C402.56 268.491 402.483 268.348 402.527 268.205C402.571 268.062 402.714 267.985 402.857 268.029C405.034 268.678 407.1 268.051 407.111 268.04C407.254 267.996 407.397 268.073 407.441 268.216C407.485 268.359 407.408 268.502 407.265 268.546C407.221 268.568 406.551 268.766 405.572 268.832Z" fill="#E0B3A8"/>
<path d="M436.068 256.137C436.244 258.766 434.265 261.032 431.638 261.219C429.01 261.395 426.746 259.415 426.559 256.786C426.383 254.157 428.362 251.891 430.989 251.704C433.627 251.528 435.892 253.508 436.068 256.137Z" fill="#FFB39B"/>
<path d="M430.516 259.119C430.395 259.13 430.274 259.064 430.208 258.943C430.131 258.789 430.186 258.591 430.34 258.514C430.747 258.305 430.967 258.03 430.967 257.711C430.978 257.381 430.747 257.04 430.417 256.842C430.055 256.633 429.626 256.644 429.263 256.875C429.164 256.941 429.043 256.941 428.944 256.886C428.845 256.831 428.779 256.732 428.779 256.611C428.757 255.456 429.472 254.455 430.648 254.004C431.868 253.542 433.166 253.828 433.946 254.741C434.056 254.873 434.045 255.071 433.913 255.192C433.781 255.302 433.583 255.291 433.462 255.159C432.726 254.301 431.616 254.323 430.879 254.609C430.274 254.84 429.637 255.346 429.461 256.127C429.89 256.028 430.329 256.083 430.725 256.314C431.264 256.622 431.616 257.183 431.605 257.744C431.594 258.063 431.462 258.668 430.637 259.097C430.593 259.108 430.549 259.119 430.516 259.119Z" fill="#E0B3A8"/>
<path d="M416.434 244.588C416.423 244.588 416.412 244.588 416.39 244.588C416.346 244.577 412.124 243.873 408.2 244.137C408.101 244.148 408.024 244.071 408.013 243.983C408.002 243.884 408.09 243.851 408.167 243.796C412.63 240.606 416.401 244.236 416.434 244.247C416.522 244.258 416.588 244.346 416.577 244.445C416.577 244.522 416.511 244.577 416.434 244.588Z" fill="#2B1710"/>
<path d="M395.458 245.688C395.381 245.688 395.305 245.644 395.283 245.567C395.25 245.479 395.37 245.446 395.392 245.347C396.261 242.267 399.713 242.707 400.548 244.324C400.592 244.412 400.724 244.379 400.735 244.478C400.746 244.577 400.68 244.654 400.581 244.665C400.548 244.665 397.525 245.039 395.491 245.677C395.48 245.677 395.469 245.688 395.458 245.688Z" fill="#2B1710"/>
<path d="M409.409 277.687H409.42C418.643 276.653 425.118 270.735 427.174 261.429C427.218 261.253 427.097 261.066 426.921 261.033C426.734 260.989 426.559 261.11 426.515 261.286C424.525 270.295 418.259 276.026 409.343 277.027C409.156 277.049 409.024 277.214 409.046 277.401C409.068 277.566 409.222 277.698 409.409 277.687Z" fill="#E0B3A8"/>
<path d="M404.803 263.266C403.121 263.376 401.351 263.321 399.658 262.969C399.526 262.947 399.449 262.815 399.471 262.694C399.504 262.573 399.625 262.485 399.746 262.507C405.572 263.717 412.311 261.363 413.235 260.538C413.334 260.45 413.477 260.461 413.565 260.56C413.652 260.659 413.641 260.802 413.543 260.89C412.773 261.594 409.046 262.98 404.803 263.266Z" fill="#2B1710"/>
<path d="M405.759 228.066C406.133 233.533 402 238.263 396.536 238.637C391.072 239.011 386.345 234.875 385.971 229.408C385.608 223.941 389.731 219.211 395.195 218.837C400.669 218.463 405.396 222.599 405.759 228.066Z" fill="#2B1710"/>
<path d="M474.105 302.789C466.454 294.352 458.692 287.873 451.085 287.829C444.94 295.265 445.291 312.821 448.842 327.374C459.165 321.335 467.828 312.865 474.105 302.789Z" fill="#E6EFFF"/>
<path d="M422.81 300.633C422.711 300.644 422.601 300.6 422.535 300.501L413.454 287.961L401.439 297.487C401.307 297.597 401.109 297.575 401.01 297.432C400.9 297.3 400.922 297.102 401.065 297.003L413.334 287.279C413.399 287.224 413.487 287.202 413.564 287.213C413.652 287.224 413.718 287.268 413.773 287.334L422.876 299.907C431.242 295.056 435.199 287.587 435.232 287.51C435.309 287.356 435.496 287.301 435.65 287.378C435.804 287.455 435.859 287.642 435.782 287.796C435.738 287.873 431.637 295.639 422.942 300.589C422.909 300.622 422.854 300.633 422.81 300.633Z" fill="#D1D1D1"/>
<path d="M413.466 287.972C413.466 287.972 405.1 294.319 405.034 294.572C404.143 299.401 406.408 307.816 406.639 307.64C411.904 306.639 414.686 308.311 414.686 308.311C419.072 305.022 420.018 297.014 420.018 297.014L413.466 287.972Z" fill="#549EF5"/>
<path d="M413.971 337.307C413.059 323.909 414.686 308.322 414.686 308.322C412.091 305.748 406.639 307.651 406.639 307.651C402.472 313.602 399.944 324.932 399.152 336.229C403.956 337.076 408.914 337.45 413.971 337.307Z" fill="#6BB0FF"/>
<path d="M235.384 469.426C237.484 469.492 244.574 471.23 246.201 468.887C247.828 466.544 250.456 463.849 253.919 463.442C257.371 463.046 260.009 459.229 260.768 459.416C261.526 459.603 260.119 463.926 258.481 465.29C256.854 466.654 255.744 466.434 256.601 467.27C257.459 468.095 268.892 467.743 272.563 467.215C276.235 466.687 272.399 469.723 272.399 469.723C273.278 471.186 271.365 472.594 271.365 472.594C272.256 474.97 265.319 477.17 265.847 477.687C267.001 480.36 259.305 482.362 254.875 481.581C250.445 480.8 246.828 479.359 242.881 479.876C238.924 480.382 233.713 480.943 233.713 480.943L235.384 469.426Z" fill="#FFB39B"/>
<path d="M271.761 469.888C271.761 469.965 271.706 470.042 271.629 470.075C271.321 470.196 263.901 473.012 258.778 472.176C258.657 472.154 258.58 472.044 258.602 471.934C258.624 471.813 258.734 471.736 258.844 471.758C263.857 472.572 271.398 469.701 271.475 469.679C271.585 469.635 271.706 469.69 271.75 469.8C271.761 469.833 271.761 469.855 271.761 469.888Z" fill="#E0B3A8"/>
<path d="M270.574 473.287C270.574 473.353 270.53 473.43 270.464 473.463C270.211 473.595 264.307 476.774 259.921 476.576C259.8 476.576 259.712 476.466 259.712 476.356C259.723 476.246 259.822 476.147 259.932 476.147C264.197 476.345 270.189 473.122 270.244 473.089C270.343 473.034 270.475 473.067 270.53 473.177C270.574 473.21 270.574 473.254 270.574 473.287Z" fill="#E0B3A8"/>
<path d="M264.912 477.719C264.912 477.796 264.857 477.873 264.769 477.906C261.988 478.94 260.493 478.94 260.427 478.94C260.306 478.94 260.218 478.841 260.218 478.72C260.218 478.599 260.317 478.511 260.438 478.511C260.449 478.511 261.933 478.5 264.626 477.499C264.736 477.455 264.857 477.51 264.901 477.631C264.912 477.664 264.912 477.697 264.912 477.719Z" fill="#E0B3A8"/>
<path d="M256.799 479.975C256.722 479.975 256.656 479.931 256.623 479.854C256.612 479.832 255.557 477.093 251.049 474.662C250.994 474.629 250.95 474.574 250.95 474.508C250.95 474.442 250.983 474.376 251.038 474.343C252.841 473.133 254.688 470.471 254.479 467.457C254.468 467.358 254.556 467.259 254.655 467.259C254.776 467.259 254.853 467.325 254.853 467.435C255.062 470.46 253.303 473.155 251.489 474.486C255.897 476.95 256.92 479.623 256.964 479.733C256.997 479.832 256.953 479.942 256.854 479.975C256.854 479.964 256.821 479.975 256.799 479.975Z" fill="#E0B3A8"/>
<path d="M177.053 434.721C190.993 456.875 241.353 467.446 241.353 467.446L240.155 482.142C218.784 489.182 166.576 482.978 162.3 469.756C158.024 456.545 177.053 434.721 177.053 434.721Z" fill="#5C78DB"/>
<path d="M161.618 427.35C162.685 427.064 172.92 428.912 172.92 428.912C184.452 438.317 182.891 463.958 182.033 473.649C181.176 483.34 186.167 513.931 186.167 513.931C165.092 535.018 124.835 521.103 124.835 521.103C118.854 507.705 118.821 443.168 121.668 438.328C124.516 433.488 144.304 427.075 144.304 427.075L161.618 427.35Z" fill="white"/>
<path d="M138.395 510.803H180.478V506.469H138.395V510.803Z" fill="#2B1710"/>
<path d="M124.956 674.553L126.594 684.585C124.483 690.096 125.384 697.07 125.384 697.07L166.379 697.235C161.97 688.919 142.743 688.237 140.731 684.255C138.719 680.273 137.862 668.481 137.862 668.481L124.956 674.553Z" fill="#FFB39B"/>
<path d="M134.135 685.136C134.08 683.695 135.147 678.536 138.873 677.007C139.324 679.834 139.94 682.661 140.742 684.245C142.754 688.227 161.981 688.909 166.39 697.225L125.395 697.06C125.395 697.06 124.494 690.075 126.605 684.575C126.605 684.586 133.992 687.732 134.135 685.136Z" fill="#2B1710"/>
<path d="M165.29 695.651C165.719 696.146 166.093 696.674 166.39 697.235L125.395 697.07C125.395 697.07 125.318 696.454 125.263 695.442L165.29 695.651Z" fill="#693E2F"/>
<path d="M137.752 686.213C137.84 686.213 137.928 686.147 137.961 686.059C137.972 686.037 138.587 684.376 139.775 683.848C140.269 683.628 140.808 683.65 141.369 683.881C141.49 683.936 141.622 683.881 141.676 683.76C141.731 683.639 141.676 683.507 141.556 683.452C140.874 683.155 140.214 683.144 139.588 683.419C138.203 684.024 137.543 685.817 137.521 685.894C137.477 686.015 137.543 686.147 137.664 686.191C137.686 686.202 137.719 686.213 137.752 686.213Z" fill="#693E2F"/>
<path d="M141.61 688.941C141.698 688.941 141.786 688.876 141.819 688.788C141.83 688.766 142.446 687.105 143.633 686.577C144.128 686.357 144.667 686.379 145.227 686.61C145.348 686.665 145.48 686.61 145.535 686.489C145.59 686.368 145.535 686.236 145.414 686.181C144.733 685.884 144.073 685.873 143.446 686.148C142.061 686.753 141.402 688.546 141.38 688.623C141.336 688.744 141.402 688.876 141.523 688.92C141.556 688.942 141.589 688.952 141.61 688.941Z" fill="#693E2F"/>
<path d="M147.965 690.778C148.053 690.778 148.141 690.712 148.174 690.624C148.185 690.602 148.8 688.941 149.988 688.413C150.482 688.193 151.021 688.215 151.582 688.446C151.702 688.501 151.834 688.446 151.889 688.325C151.944 688.204 151.889 688.072 151.768 688.017C151.087 687.72 150.427 687.709 149.801 687.984C148.415 688.589 147.756 690.382 147.734 690.459C147.69 690.58 147.756 690.712 147.877 690.756C147.91 690.778 147.943 690.778 147.965 690.778Z" fill="#693E2F"/>
<path d="M174.151 674.553L175.822 684.585C173.722 690.096 174.646 697.081 174.646 697.081L215.64 697.115C211.21 688.81 191.982 688.182 189.959 684.2C187.937 680.229 187.046 668.438 187.046 668.438L174.151 674.553Z" fill="#FFB39B"/>
<path d="M183.352 685.114C183.286 683.673 184.353 678.503 188.068 676.974C188.53 679.801 189.157 682.628 189.959 684.212C191.982 688.183 211.21 688.821 215.64 697.126L174.646 697.093C174.646 697.093 173.722 690.108 175.822 684.597C175.822 684.586 183.22 687.71 183.352 685.114Z" fill="#2B1710"/>
<path d="M214.541 695.53C214.969 696.025 215.343 696.553 215.64 697.114L174.646 697.081C174.646 697.081 174.569 696.465 174.503 695.453L214.541 695.53Z" fill="#693E2F"/>
<path d="M186.969 686.18C187.057 686.18 187.145 686.114 187.178 686.026C187.189 686.004 187.794 684.343 188.992 683.815C189.487 683.595 190.014 683.606 190.586 683.848C190.707 683.903 190.839 683.837 190.894 683.727C190.949 683.606 190.883 683.474 190.773 683.419C190.091 683.133 189.421 683.122 188.805 683.386C187.42 683.991 186.771 685.795 186.738 685.872C186.694 685.993 186.76 686.125 186.881 686.169C186.914 686.169 186.947 686.18 186.969 686.18Z" fill="#693E2F"/>
<path d="M190.85 688.897C190.938 688.897 191.026 688.831 191.059 688.743C191.07 688.721 191.674 687.049 192.873 686.532C193.367 686.312 193.895 686.323 194.467 686.565C194.587 686.62 194.719 686.554 194.774 686.444C194.829 686.323 194.763 686.191 194.653 686.136C193.972 685.85 193.301 685.839 192.686 686.103C191.3 686.708 190.652 688.512 190.619 688.589C190.575 688.71 190.641 688.842 190.762 688.886C190.784 688.897 190.817 688.897 190.85 688.897Z" fill="#693E2F"/>
<path d="M197.204 690.713C197.292 690.713 197.38 690.647 197.413 690.559C197.424 690.537 198.028 688.865 199.227 688.348C199.721 688.128 200.249 688.139 200.821 688.381C200.942 688.436 201.074 688.37 201.129 688.26C201.184 688.139 201.118 688.007 201.008 687.952C200.326 687.666 199.656 687.655 199.04 687.919C197.655 688.524 197.006 690.328 196.973 690.405C196.929 690.526 196.995 690.658 197.116 690.702C197.149 690.713 197.171 690.713 197.204 690.713Z" fill="#693E2F"/>
<path d="M192.653 683.112H171.996L159.87 586.939L146.162 683.112H125.318C124.769 652.84 118.546 538.693 129.122 510.643H184.144C190.41 573.629 192.653 683.112 192.653 683.112Z" fill="#164283"/>
<path d="M159.87 583.847C159.991 583.847 160.101 583.748 160.101 583.627L162.861 534.699L166.939 533.632C167.049 533.599 167.126 533.5 167.115 533.39L166.192 520.465C166.181 520.333 166.071 520.234 165.939 520.245C165.807 520.256 165.708 520.366 165.719 520.498L166.631 533.225L162.575 534.281C162.476 534.303 162.41 534.391 162.399 534.501L159.629 583.605C159.618 583.737 159.716 583.847 159.848 583.858C159.859 583.847 159.87 583.847 159.87 583.847Z" fill="#E0C9C0"/>
<path d="M173.096 679.525H191.301C191.433 679.525 191.531 679.416 191.531 679.295C191.531 679.174 191.422 679.063 191.301 679.063H173.096C172.964 679.063 172.865 679.174 172.865 679.295C172.865 679.416 172.975 679.525 173.096 679.525Z" fill="#E0C9C0"/>
<path d="M127.352 679.899H145.063C145.194 679.899 145.293 679.789 145.293 679.668C145.293 679.547 145.183 679.438 145.063 679.438H127.352C127.22 679.438 127.121 679.547 127.121 679.668C127.121 679.789 127.22 679.899 127.352 679.899Z" fill="#E0C9C0"/>
<path d="M132.816 529.453C132.827 529.453 132.827 529.453 132.838 529.453C135.223 529.222 143.029 527.429 143.501 514.086C143.501 513.954 143.402 513.844 143.27 513.844C143.139 513.844 143.029 513.943 143.029 514.075C142.721 522.82 138.895 528.386 132.783 528.98C132.651 528.991 132.563 529.112 132.574 529.233C132.596 529.365 132.695 529.453 132.816 529.453Z" fill="#E0C9C0"/>
<path d="M127.847 677.194C127.979 677.194 128.089 677.084 128.078 676.952C128.045 675.764 129.034 535.536 132.684 515.978C132.706 515.846 132.618 515.725 132.497 515.703C132.365 515.681 132.244 515.769 132.222 515.89C128.572 535.503 127.583 675.786 127.616 676.974C127.605 677.095 127.715 677.194 127.847 677.194Z" fill="#E0C9C0"/>
<path d="M122.097 530.475C121.723 532.543 118.953 539.308 121.031 541.255C123.109 543.213 125.384 546.216 125.263 549.692C125.142 553.168 128.528 556.347 128.231 557.062C127.935 557.788 123.867 555.753 122.768 553.938C121.657 552.123 122.042 551.056 121.097 551.782C120.151 552.508 118.81 563.871 118.788 567.589C118.766 571.307 116.337 567.05 116.337 567.05C114.765 567.71 113.654 565.609 113.654 565.609C111.181 566.137 110.026 558.954 109.433 559.394C106.63 560.142 105.772 552.233 107.212 547.965C108.641 543.697 110.598 540.331 110.675 536.349C110.763 532.356 110.972 527.109 110.972 527.109L122.097 530.475Z" fill="#FFB39B"/>
<path d="M116.249 566.401C116.172 566.379 116.106 566.324 116.084 566.236C116.007 565.906 114.325 558.151 115.908 553.201C115.941 553.091 116.062 553.025 116.172 553.058C116.282 553.091 116.348 553.212 116.315 553.322C114.765 558.162 116.491 566.049 116.502 566.126C116.524 566.247 116.458 566.357 116.337 566.379C116.315 566.412 116.282 566.412 116.249 566.401Z" fill="#E0B3A8"/>
<path d="M113.072 564.729C113.006 564.718 112.94 564.663 112.918 564.597C112.819 564.333 110.554 558.019 111.401 553.707C111.423 553.586 111.533 553.52 111.654 553.542C111.764 553.564 111.84 553.674 111.818 553.795C110.994 557.986 113.292 564.388 113.314 564.454C113.358 564.564 113.292 564.685 113.182 564.729C113.149 564.74 113.105 564.74 113.072 564.729Z" fill="#E0B3A8"/>
<path d="M109.521 558.471C109.444 558.449 109.378 558.394 109.356 558.306C108.751 555.402 108.96 553.917 108.971 553.851C108.993 553.73 109.103 553.653 109.213 553.675C109.334 553.697 109.411 553.807 109.389 553.917C109.389 553.928 109.18 555.402 109.763 558.218C109.785 558.339 109.708 558.449 109.598 558.471C109.587 558.482 109.554 558.482 109.521 558.471Z" fill="#E0B3A8"/>
<path d="M178.834 524.217C177.713 512.634 176.833 485.046 176.976 476.95C177.174 465.983 177.35 440.87 165.389 427.681C168.698 428.154 172.931 428.913 172.931 428.913C184.463 438.318 182.902 463.959 182.044 473.65C181.187 483.341 186.892 519.113 186.892 519.113C184.957 521.027 181.022 522.842 178.834 524.217Z" fill="#425EC5"/>
<path d="M124.824 521.081C118.843 507.683 118.81 443.146 121.658 438.306C123.405 435.325 131.574 431.75 137.598 429.451C144.788 440.836 148.053 451.781 146.656 480.26C145.689 499.972 146.393 516.593 146.964 525.371C134.564 524.447 124.824 521.081 124.824 521.081Z" fill="#425EC5"/>
<path d="M124.263 435.743C130.595 440.66 138.038 451.341 132.057 471.647C126.077 491.953 127.066 539.451 127.066 539.451L105.277 540.309C101.012 508.255 104.288 446.567 124.263 435.743Z" fill="#5C78DB"/>
<path d="M151.856 440.408C151.922 440.408 151.988 440.375 152.021 440.32L157.276 431.927L165.356 437.482C165.444 437.548 165.565 437.526 165.631 437.427C165.697 437.339 165.675 437.218 165.576 437.152L157.32 431.476C157.276 431.443 157.221 431.432 157.166 431.443C157.111 431.454 157.067 431.487 157.034 431.531L151.768 439.946C146.217 437.207 143.369 432.609 143.347 432.565C143.292 432.477 143.172 432.444 143.073 432.499C142.985 432.554 142.952 432.675 143.007 432.774C143.04 432.818 145.997 437.603 151.757 440.386C151.801 440.408 151.834 440.408 151.856 440.408Z" fill="#D1D1D1"/>
<path d="M157.276 431.938C157.276 431.938 162.894 435.634 162.938 435.788C163.707 438.835 162.63 444.302 162.476 444.203C159.068 443.785 157.375 444.973 157.375 444.973C154.44 443.059 153.483 437.999 153.483 437.999L157.276 431.938Z" fill="#529BF0"/>
<path d="M162.476 444.202C167.423 450.34 170.061 466.598 168.819 476.036C167.577 485.474 173.458 496.166 173.458 496.166L166.346 514.591C166.346 514.591 153.044 499.268 152.417 498.487C148.855 489.357 157.056 478.984 158.606 470.008C160.156 461.032 157.364 444.983 157.364 444.983C158.925 443.223 162.476 444.202 162.476 444.202Z" fill="#6BB0FF"/>
<path d="M161.267 400.565C165.395 400.565 168.742 397.217 168.742 393.085C168.742 388.954 165.395 385.605 161.267 385.605C157.138 385.605 153.791 388.954 153.791 393.085C153.791 397.217 157.138 400.565 161.267 400.565Z" fill="#2B1710"/>
<path d="M166.269 402.909C165.026 404.152 163.026 404.152 161.783 402.909C160.541 401.666 160.541 399.664 161.783 398.421C163.026 397.178 165.026 397.178 166.269 398.421C167.5 399.664 167.5 401.666 166.269 402.909Z" fill="#2B1710"/>
<path d="M164.686 400.873C164.686 394.966 161.289 390.753 150.856 391.974C140.423 393.184 141.556 404.679 142.765 410.179C143.974 415.679 147.294 419.727 147.294 419.727L164.686 400.873Z" fill="#2B1710"/>
<path d="M158.892 396.572C161.311 395.505 164.114 397.21 164.532 399.828C164.971 402.567 164.719 406.175 164.532 409.695C164.125 417.142 164.774 422.235 158.309 423.368C158.309 426.041 159.002 427.306 161.673 427.306C162.135 431.2 147.569 431.739 143.271 427.493C147.316 425.392 146.096 414.469 146.096 414.469L145.634 410.135C147.756 411.587 148.723 408.98 148.426 407.341C148.119 405.702 147.701 401.995 147.701 401.995C151.527 401.632 151.406 394.647 151.406 394.647C153.263 398.981 157.925 396.99 158.892 396.572Z" fill="#FFB39B"/>
<path d="M161.992 408.529C162.496 408.529 162.904 407.785 162.904 406.868C162.904 405.951 162.496 405.207 161.992 405.207C161.488 405.207 161.08 405.951 161.08 406.868C161.08 407.785 161.488 408.529 161.992 408.529Z" fill="#2B1710"/>
<path d="M141.072 411.719C141.072 413.259 142.325 414.513 143.864 414.513C145.403 414.513 146.656 413.259 146.656 411.719C146.656 410.179 145.403 408.925 143.864 408.925C142.314 408.925 141.072 410.179 141.072 411.719Z" fill="#FFB39B"/>
<path d="M144.458 413.171C144.524 413.171 144.59 413.127 144.623 413.061C144.667 412.973 144.623 412.863 144.524 412.819C144.282 412.72 144.15 412.566 144.139 412.379C144.128 412.192 144.238 411.983 144.425 411.862C144.623 411.73 144.865 411.719 145.084 411.829C145.139 411.862 145.216 411.862 145.271 411.818C145.326 411.785 145.359 411.719 145.359 411.653C145.326 410.993 144.876 410.443 144.194 410.234C143.479 410.014 142.743 410.234 142.336 410.784C142.281 410.861 142.292 410.982 142.369 411.037C142.446 411.092 142.567 411.081 142.622 411.004C143.007 410.487 143.644 410.454 144.084 410.586C144.436 410.696 144.821 410.96 144.953 411.4C144.711 411.356 144.447 411.411 144.238 411.554C143.941 411.752 143.765 412.082 143.798 412.401C143.809 412.588 143.919 412.929 144.403 413.138C144.403 413.171 144.436 413.171 144.458 413.171Z" fill="#E0B3A8"/>
<path d="M154.011 407.11C154.011 408.023 154.418 408.771 154.923 408.771C155.429 408.771 155.836 408.023 155.836 407.11C155.836 406.197 155.429 405.449 154.923 405.449C154.418 405.449 154.011 406.197 154.011 407.11Z" fill="#2B1710"/>
<path d="M155.077 409.574C155.099 409.574 155.121 409.574 155.143 409.574C155.231 409.574 155.297 409.497 155.297 409.409C155.297 409.321 155.22 409.255 155.132 409.255C154.308 409.288 153.615 408.672 153.56 407.847C153.549 407.759 153.483 407.693 153.395 407.704C153.307 407.715 153.241 407.781 153.252 407.869C153.318 408.837 154.11 409.574 155.077 409.574Z" fill="#E0B3A8"/>
<path d="M164.301 403.26C164.356 403.26 164.4 403.238 164.433 403.183C164.477 403.106 164.455 403.018 164.378 402.974C162.861 402.061 160.992 402.314 160.167 402.688C160.09 402.721 160.057 402.82 160.09 402.897C160.123 402.974 160.222 403.007 160.299 402.974C161.058 402.622 162.795 402.391 164.224 403.238C164.246 403.249 164.268 403.26 164.301 403.26Z" fill="#2B1710"/>
<path d="M151.625 403.59C151.658 403.59 151.68 403.579 151.702 403.568C152.89 402.831 155.066 402.358 157.056 403.062C157.133 403.095 157.221 403.051 157.254 402.963C157.287 402.886 157.243 402.798 157.155 402.765C155.066 402.017 152.78 402.512 151.526 403.293C151.449 403.337 151.427 403.436 151.482 403.502C151.515 403.568 151.57 403.59 151.625 403.59Z" fill="#2B1710"/>
<path d="M160.453 411.906C161.508 411.873 163.993 411.785 164.279 411.565C164.312 411.543 164.345 411.466 164.356 411.422C164.367 411.191 163.971 410.74 162.476 409.189C161.552 408.221 160.398 407.022 160.299 406.692C160.046 405.823 160.101 404.844 160.475 403.689C160.497 403.612 160.453 403.524 160.376 403.491C160.299 403.469 160.211 403.513 160.178 403.59C159.782 404.8 159.727 405.845 159.991 406.78C160.101 407.154 160.959 408.067 162.245 409.409C162.949 410.146 163.806 411.037 164.004 411.345C163.586 411.444 161.948 411.543 160.442 411.587C160.354 411.587 160.288 411.664 160.288 411.741C160.299 411.84 160.365 411.906 160.453 411.906Z" fill="#2B1710"/>
<path d="M156.023 423.379C156.078 423.379 156.122 423.379 156.177 423.379C156.265 423.379 156.33 423.302 156.33 423.225C156.33 423.137 156.265 423.071 156.166 423.071C152.901 423.159 148.382 420.123 147.217 415.899C147.195 415.811 147.107 415.767 147.03 415.789C146.942 415.811 146.898 415.899 146.92 415.976C148.107 420.266 152.659 423.379 156.023 423.379Z" fill="#E0B3A8"/>
<path d="M148.097 411.939C148.294 411.939 148.503 411.873 148.712 411.719C148.778 411.664 148.789 411.565 148.745 411.499C148.69 411.433 148.591 411.422 148.525 411.466C148.163 411.741 147.822 411.565 147.723 411.51C147.558 411.4 147.492 411.279 147.503 411.224C147.503 411.213 147.525 411.202 147.58 411.191C148.327 411.081 148.679 410.542 148.679 409.486C148.679 409.398 148.613 409.332 148.525 409.332C148.437 409.332 148.371 409.398 148.371 409.486C148.371 410.608 147.965 410.817 147.536 410.883C147.272 410.916 147.206 411.092 147.195 411.158C147.151 411.356 147.294 411.598 147.558 411.763C147.701 411.873 147.899 411.939 148.097 411.939Z" fill="#2B1710"/>
<path d="M156.155 411.598C156.605 412.247 157.067 412.72 157.177 412.643C157.287 412.566 157.012 411.972 156.55 411.323C156.1 410.674 155.638 410.201 155.528 410.278C155.418 410.355 155.704 410.949 156.155 411.598Z" fill="#FF7E57"/>
<path d="M154.791 411.631C155.242 412.28 155.704 412.753 155.814 412.676C155.924 412.599 155.649 412.005 155.187 411.356C154.736 410.707 154.275 410.234 154.165 410.311C154.055 410.388 154.33 410.982 154.791 411.631Z" fill="#FF7E57"/>
<path d="M153.362 411.598C153.813 412.247 154.275 412.72 154.385 412.643C154.495 412.566 154.22 411.972 153.758 411.323C153.307 410.674 152.846 410.201 152.736 410.278C152.626 410.355 152.912 410.949 153.362 411.598Z" fill="#FF7E57"/>
<path d="M162.641 413.611C162.168 415.074 161.695 416.207 161.772 417.109C161.86 418.011 162.047 419.21 160.2 419.298C158.353 419.386 155.66 416.108 154.923 414.194C157.551 414.601 159.859 414.656 159.903 414.623C159.958 414.579 162.641 413.611 162.641 413.611Z" fill="#531710"/>
<path d="M154.923 414.184C155.924 414.338 156.869 414.437 157.672 414.503L159.024 414.976C159.024 414.976 161.53 416.318 161.278 419.002C161.036 419.156 160.684 419.266 160.189 419.288C158.342 419.376 155.649 416.109 154.923 414.184Z" fill="#6C1710"/>
<path d="M162.553 413.622C161.497 415.866 158.397 416.064 154.923 414.183C158.364 414.293 160.772 414.524 162.553 413.622Z" fill="white"/>
<path d="M157.408 414.459C159.332 414.459 161.761 414.239 163.454 413.315C163.52 413.282 163.542 413.205 163.509 413.139C163.476 413.073 163.399 413.051 163.333 413.084C160.255 414.778 154.418 414.03 154.363 414.019C154.297 414.008 154.231 414.063 154.22 414.129C154.209 414.195 154.264 414.261 154.33 414.272C154.429 414.294 155.726 414.459 157.408 414.459Z" fill="#2B1710"/>
<path d="M159.64 420.574C160.398 420.574 161.355 420.409 162.267 419.793C162.322 419.749 162.344 419.672 162.3 419.617C162.256 419.562 162.179 419.54 162.124 419.584C160.321 420.805 158.287 420.134 158.276 420.134C158.21 420.112 158.134 420.145 158.112 420.211C158.09 420.277 158.123 420.354 158.188 420.376C158.232 420.376 158.815 420.574 159.64 420.574Z" fill="#E0B3A8"/>
<path d="M414.873 540.575L260.867 595.267C255.766 597.082 250.159 594.409 248.356 589.305L198.6 449.011C196.786 443.907 199.458 438.297 204.559 436.493L358.565 381.801C363.666 379.986 369.272 382.659 371.075 387.763L420.831 528.057C422.634 533.161 419.974 538.76 414.873 540.575Z" fill="#D1DBED"/>
<path d="M396.932 533.348L239.177 589.371C235.109 590.812 230.646 588.689 229.195 584.619L178.109 440.585C176.668 436.515 178.79 432.049 182.858 430.597L340.612 374.574C344.68 373.133 349.143 375.256 350.594 379.326L401.681 523.36C403.121 527.43 400.999 531.896 396.932 533.348Z" fill="white"/>
<path d="M309.259 552.623C348.25 541.923 371.189 501.622 360.495 462.607C349.802 423.593 309.525 400.64 270.534 411.34C231.543 422.041 208.604 462.342 219.298 501.356C229.992 540.37 270.269 563.323 309.259 552.623Z" fill="#B1C8F7"/>
<path d="M270.541 449.671C263.637 449.957 263.153 452.564 263.483 454.302C263.813 456.04 262.241 455.963 259.185 458.757C256.128 461.551 256.854 463.212 257.876 464.389C258.91 465.566 257.734 466.424 256.052 469.218C254.359 472.012 256.722 472.518 257.558 474.223C258.382 475.917 254.556 476.566 256.623 479.525C258.69 482.484 258.261 481.89 257.206 484.761C256.15 487.621 259.954 488.875 259.954 490.844C259.954 492.813 257.239 497.18 259.701 498.676C262.153 500.172 261.13 501.734 259.47 504.605C257.81 507.476 260.119 509.214 261.801 510.699C263.483 512.195 260.009 517.574 261.306 519.147C262.593 520.72 265.121 518.85 264.011 523.965C262.911 529.08 262.878 530.972 265.143 532.215C267.397 533.458 264.703 541.587 269.452 540.102C274.202 538.617 345.845 520.423 347.044 519.642C353.343 513.878 347.439 507.63 345.164 506.145C342.888 504.66 343.108 504.385 342.91 502.163C342.712 499.941 340.964 500.447 340.118 499.105C339.271 497.763 340.415 492.538 336.908 491.768C333.401 490.998 332.181 491.35 330.96 488.545C329.729 485.74 328.421 484.508 325.848 485.3C323.276 486.081 321.209 483.903 321.044 481.571C320.879 479.239 319.263 479.261 318.307 478.051C317.351 476.841 318.252 476.357 317.252 474.652C316.251 472.947 313.844 472.54 313.063 471.946C312.283 471.341 314.294 467.722 310.755 466.875C307.215 466.028 307.38 465.61 306.808 463.718C306.236 461.826 307.995 461.738 304.906 460.946C301.817 460.154 303.433 459.538 300.707 455.666C297.98 451.794 299.343 452.146 297.376 451.981C295.419 451.816 294.078 449.737 293.671 448.208C293.253 446.679 290.153 446.833 288.427 447.592C286.701 448.351 285.591 446.008 283.018 446.789C280.446 447.57 278.016 448.472 277.642 446.657C277.258 444.842 272.663 447.273 270.541 449.671Z" fill="#2B1710"/>
<path d="M314.382 551.003C331.73 544.843 345.285 532.798 353.662 517.915C347.143 511.887 343.922 507.201 334.368 502.141C322.66 495.948 313.701 499.6 313.701 499.6L294.012 510.71L280.512 513.625C270.123 518.773 269.518 525.219 268.023 533.931C267.386 537.616 266.33 544.304 265.033 550.838C280.413 556.426 297.76 556.899 314.382 551.003Z" fill="white"/>
<path d="M286.723 498.181C286.723 498.181 288.229 502.79 288.68 505.298C289.131 507.795 288.834 508.576 280.501 513.636C282.15 514.461 289.625 517.739 298.365 513.911C307.105 510.083 310.656 505.573 313.701 499.6C313.701 499.6 312.525 499.853 309.095 501.107C305.654 502.361 304.115 501.492 301.674 497.675C299.234 493.858 296.243 484.233 295.957 480.504C299.519 479.393 298.508 476.049 298.013 474.784C297.519 473.519 296.749 473.662 295.276 473.673C293.803 473.673 293.451 471.132 293.44 469.328C293.429 467.535 288.416 468.569 286.987 467.656C285.558 466.743 286.822 463.608 284.942 463.729C282.48 465.445 280.292 463.839 280.05 462.398C279.808 460.957 279.182 458.218 276.488 459.846C273.795 461.474 270.211 460.341 270.717 455.754C266.11 458.152 263.835 465.588 264.165 468.976C264.494 472.364 266.891 481.219 270.068 487.742C273.234 494.254 280.93 503.164 286.723 498.181Z" fill="#FFB39B"/>
<path d="M274.993 487.522C274.773 484.992 283.425 482.671 286.778 483.232C286.03 489.249 283.502 491.845 280.666 492.406C277.829 492.978 275.257 489.601 275.147 488.622C275.037 487.643 274.993 487.522 274.993 487.522Z" fill="#E0B3A8"/>
<path d="M278.236 481.747C278.225 481.747 278.214 481.758 278.214 481.758C274.246 482.814 274.125 482.55 274.059 482.396C274.015 482.297 274.037 482.198 274.202 481.637C274.762 479.635 276.488 473.552 272.3 470.78C272.212 470.725 272.19 470.615 272.245 470.527C272.3 470.439 272.41 470.417 272.498 470.472C276.906 473.387 275.136 479.668 274.553 481.725C274.509 481.89 274.454 482.066 274.432 482.176C274.905 482.176 276.609 481.791 278.137 481.384C278.236 481.362 278.335 481.417 278.357 481.516C278.368 481.615 278.324 481.714 278.236 481.747Z" fill="#2B1710"/>
<path d="M287.097 497.653C287.031 497.686 286.954 497.664 286.899 497.609C286.833 497.532 286.833 497.422 286.899 497.356C294.451 490.008 295.034 481.45 295.045 481.362C295.056 481.263 295.133 481.186 295.232 481.197C295.331 481.208 295.408 481.285 295.397 481.384C295.397 481.472 294.792 490.162 287.141 497.62C287.13 497.642 287.108 497.653 287.097 497.653Z" fill="#E0B3A8"/>
<path d="M301.861 515.748C301.058 516.1 300.245 516.419 299.409 516.716C291.593 519.499 283.337 519.499 276.774 516.694C276.686 516.65 276.642 516.551 276.675 516.452C276.719 516.364 276.818 516.32 276.917 516.353C283.403 519.125 291.549 519.125 299.288 516.364C307.434 513.46 313.964 507.96 317.691 500.865C317.735 500.777 317.845 500.744 317.933 500.788C318.021 500.832 318.054 500.942 318.01 501.03C314.624 507.487 308.952 512.635 301.861 515.748Z" fill="#BFBFBF"/>
<path d="M275.972 527.001C275.884 527.023 275.818 527.133 275.851 527.221C277.423 532.545 277.632 537.396 277.808 541.675C278.027 546.768 278.236 551.179 280.721 554.622C280.886 554.644 281.04 554.666 281.204 554.688C278.588 551.289 278.39 546.823 278.17 541.653C277.983 537.352 277.786 532.479 276.202 527.111C276.169 527.034 276.06 526.979 275.972 527.001Z" fill="#BFBFBF"/>
<path d="M330.993 523.173C330.982 523.173 330.982 523.173 330.971 523.184C330.872 523.217 330.773 523.162 330.751 523.063L330.686 522.854C328.047 514.23 328.091 507.322 330.828 502.317C330.872 502.229 330.982 502.196 331.07 502.24C331.158 502.284 331.191 502.394 331.147 502.482C328.465 507.399 328.421 514.219 331.037 522.744L331.103 522.953C331.125 523.041 331.081 523.14 330.993 523.173Z" fill="#BFBFBF"/>
<path d="M284.304 471.649C284.854 472.903 284.7 474.179 283.975 474.498C283.249 474.817 282.205 474.058 281.666 472.815C281.116 471.561 281.27 470.285 281.996 469.966C282.71 469.647 283.755 470.406 284.304 471.649Z" fill="#2B1710"/>
<path d="M273.267 475.521C273.817 476.775 273.663 478.051 272.937 478.37C272.212 478.689 271.167 477.93 270.629 476.687C270.079 475.433 270.233 474.157 270.959 473.838C271.684 473.519 272.717 474.267 273.267 475.521Z" fill="#2B1710"/>
<path d="M277.445 468.613C281.281 466.677 286.8 467.085 286.8 467.085C283.788 464.61 279.116 464.796 277.445 468.613Z" fill="#2B1710"/>
<path d="M265.429 473.178C267.089 471.099 271.508 470.769 271.508 470.769C269.343 468.624 265.726 470.472 265.429 473.178Z" fill="#2B1710"/>
<path d="M275.18 487.291C277.247 485.465 286.657 482.693 286.778 483.243C286.888 483.793 284.557 489.315 281.501 490.657C278.445 491.988 273.729 488.567 275.18 487.291Z" fill="#3F1710"/>
<path d="M286.129 483.199C283.953 483.507 276.939 485.74 275.18 487.28C275.103 487.357 275.037 487.434 274.993 487.522C278.104 488.688 283.854 486.455 286.129 483.199Z" fill="white"/>
<path d="M282.546 493.506C281.732 493.858 280.743 494.1 279.698 493.968C279.599 493.957 279.533 493.869 279.544 493.77C279.555 493.671 279.643 493.605 279.742 493.616C281.809 493.869 283.612 492.626 284.118 492.01C284.184 491.933 284.294 491.922 284.37 491.988C284.447 492.054 284.458 492.164 284.392 492.241C284.118 492.582 283.436 493.121 282.546 493.506Z" fill="#E0B3A8"/>
<path d="M299.344 479.833C299.904 481.109 299.322 482.583 298.046 483.144C296.771 483.705 295.298 483.122 294.737 481.846C294.177 480.57 294.759 479.096 296.035 478.535C297.299 477.985 298.783 478.557 299.344 479.833Z" fill="white"/>
<path d="M255.315 161.615H251.083V358.35H255.315V161.615Z" fill="#577DC4"/>
<path d="M446.611 139.549H257.316V168.072H446.611V139.549Z" fill="#81A0DB"/>
<path d="M257.316 139.549H230.261V168.072H257.316V139.549Z" fill="#577DC4"/>
<path d="M413.389 151.968H423.723C432.429 151.968 439.487 159.03 439.487 167.742V179.6H397.624V167.753C397.613 159.041 404.671 151.968 413.389 151.968Z" fill="#577DC4"/>
<path d="M411.872 166.07C411.872 169.766 414.862 172.758 418.556 172.758C422.249 172.758 425.24 169.766 425.24 166.07C425.24 162.374 422.249 159.382 418.556 159.382C414.862 159.382 411.872 162.374 411.872 166.07Z" fill="#3E5787"/>
<path d="M289.527 382.165L299.948 378.579L303.147 387.907L292.726 391.482L297.706 406.035L288.702 409.126L283.722 394.573L280.523 385.245L289.527 382.165Z" fill="#577DC4"/>
<path d="M280.633 385.216L271.628 388.307L279.809 412.175L288.814 409.085L280.633 385.216Z" fill="#81A0DB"/>
<path d="M240.265 399.061L250.698 395.486L253.897 404.814L243.464 408.389L248.455 422.931L239.452 426.022L234.461 411.48L231.261 402.152L240.265 399.061Z" fill="#577DC4"/>
<path d="M231.4 402.104L222.395 405.195L230.578 429.064L239.583 425.973L231.4 402.104Z" fill="#81A0DB"/>
<path d="M238.858 406.563C240.199 406.101 240.914 404.649 240.452 403.307L234.307 385.388C233.295 382.429 234.878 379.184 237.835 378.172L273.861 365.808C276.818 364.796 280.061 366.38 281.072 369.339L286.569 385.355C287.031 386.697 288.482 387.412 289.823 386.95C291.164 386.488 291.879 385.036 291.417 383.694L285.92 367.678C283.986 362.046 277.829 359.032 272.201 360.957L236.175 373.321C230.547 375.257 227.535 381.417 229.459 387.049L235.604 404.968C236.055 406.31 237.517 407.014 238.858 406.563Z" fill="#577DC4"/>
<path d="M246.41 364.037C247.686 367.766 251.742 369.746 255.458 368.47C259.185 367.194 261.164 363.135 259.888 359.417C258.613 355.688 254.557 353.708 250.841 354.984C247.114 356.26 245.135 360.308 246.41 364.037Z" fill="#5E76A4"/>
<path d="M249.774 362.882C250.412 364.741 252.435 365.742 254.304 365.093C256.162 364.455 257.162 362.431 256.513 360.561C255.876 358.702 253.853 357.701 251.984 358.35C250.137 358.988 249.137 361.012 249.774 362.882Z" fill="#6A8DCF"/>
<path d="M557.333 425.505C556.014 421.182 555.31 419.994 553.573 420.698C551.836 421.391 546.812 423.701 546.537 425.439C546.262 427.177 546.603 432.622 548.208 433.733C549.802 434.844 557.333 425.505 557.333 425.505Z" fill="#F07652"/>
<path d="M609.562 427.562C594.765 434.294 597.37 468.251 555.453 434.844L551 441.158C557.673 454.149 573.449 471.595 592.358 470.858C611.266 470.121 621.105 458.604 621.105 458.604L609.562 427.562Z" fill="#7D9AFF"/>
<path d="M555.321 434.822C554.419 432.314 554.848 431.709 555.673 430.653C556.497 429.597 558.663 427.089 559.191 425.659C559.718 424.229 560.993 422.117 561.224 421.512C560.246 420.83 557.311 422.337 556.706 423.844C556.101 425.351 552.639 426.561 550.682 428.288C548.725 430.026 547.966 432.061 547.966 433.183C547.966 434.316 551 441.147 551 441.147L555.321 434.822Z" fill="#FFB39B"/>
<path d="M551.88 421.468C551.88 423.525 552.54 425.197 553.353 425.197C554.167 425.197 554.826 423.525 554.826 421.468C554.826 419.411 554.167 417.739 553.353 417.739C552.54 417.739 551.88 419.411 551.88 421.468Z" fill="#FFB39B"/>
<path d="M549.626 422.524C549.626 424.581 550.286 426.253 551.1 426.253C551.913 426.253 552.573 424.581 552.573 422.524C552.573 420.467 551.913 418.795 551.1 418.795C550.275 418.795 549.626 420.467 549.626 422.524Z" fill="#FFB39B"/>
<path d="M547.593 424.262C547.593 426.319 548.252 427.991 549.066 427.991C549.879 427.991 550.539 426.319 550.539 424.262C550.539 422.205 549.879 420.533 549.066 420.533C548.252 420.533 547.593 422.194 547.593 424.262Z" fill="#FFB39B"/>
<path d="M545.702 426.857C546.339 428.529 547.296 429.717 547.845 429.508C548.384 429.299 548.307 427.781 547.67 426.109C547.032 424.437 546.076 423.249 545.526 423.458C544.976 423.667 545.064 425.185 545.702 426.857Z" fill="#FFB39B"/>
<path d="M616.268 683.861C615.147 681.628 613.96 677.36 614.245 671.222C614.564 668.934 614.96 666.03 615.4 662.719C615.62 661.069 615.85 659.32 616.092 657.483L605.121 660.42C605.308 662.4 605.484 664.248 605.649 665.942C605.989 669.55 605.879 673.202 605.231 676.766C605.033 677.844 604.813 678.757 604.571 679.252C603.703 681.023 597.393 687.139 594.523 692.408C594.248 693.046 587.74 694.08 588.719 695.576C589.312 695.906 600.669 696.797 601.933 695.565C603.208 694.344 606.22 691.297 609.606 690.604C609.815 690.648 609.815 696.115 609.815 696.115L614.729 696.137C614.729 696.137 615.301 691.275 615.521 689.801C615.729 688.36 617.4 686.116 616.268 683.861Z" fill="#FFB39B"/>
<path d="M594.468 692.474C596.524 692.716 598.778 693.167 599.569 692.815C600.636 692.353 607.649 683.641 615.345 681.496C615.642 682.442 615.96 683.223 616.268 683.85C617.4 686.116 615.729 688.349 615.51 689.812C615.29 691.275 614.718 696.148 614.718 696.148L609.804 696.126C609.804 696.126 609.804 690.648 609.595 690.615C606.22 691.297 603.197 694.344 601.922 695.576C600.647 696.797 589.301 695.906 588.708 695.587C587.762 694.124 593.875 693.156 594.468 692.474Z" fill="#2B1710"/>
<path d="M656.372 683.861C655.25 681.628 654.063 677.36 654.349 671.222C654.668 668.934 655.063 666.03 655.503 662.719C655.723 661.069 655.954 659.32 656.196 657.483L645.224 660.42C645.411 662.4 645.587 664.248 645.752 665.942C646.093 669.55 645.983 673.202 645.334 676.766C645.136 677.844 644.917 678.757 644.675 679.252C643.806 681.023 637.496 687.139 634.627 692.408C634.352 693.046 627.844 694.08 628.822 695.576C629.416 695.906 640.772 696.797 642.036 695.565C643.312 694.344 646.324 691.297 649.71 690.604C649.919 690.648 649.919 696.115 649.919 696.115L654.833 696.137C654.833 696.137 655.404 691.275 655.624 689.801C655.833 688.36 657.504 686.116 656.372 683.861Z" fill="#FFB39B"/>
<path d="M634.572 692.474C636.628 692.716 638.881 693.167 639.673 692.815C640.739 692.353 647.753 683.641 655.448 681.496C655.745 682.442 656.064 683.223 656.372 683.85C657.504 686.116 655.833 688.349 655.613 689.812C655.393 691.275 654.822 696.148 654.822 696.148L649.908 696.126C649.908 696.126 649.908 690.648 649.699 690.615C646.324 691.297 643.301 694.344 642.026 695.576C640.75 696.797 629.405 695.906 628.812 695.587C627.855 694.124 633.967 693.156 634.572 692.474Z" fill="#2B1710"/>
<path d="M617.39 426.66L609.485 427.474C608.54 437.682 599.283 448.671 598.811 454.325C598.338 459.979 605.715 468.46 608.694 473.795C611.673 479.13 611.673 483.838 611.673 483.838H642.894C642.894 482.43 650.425 447.417 649.479 438.782C648.534 430.147 635.935 427.155 635.935 427.155C635.935 427.155 626.701 428.101 617.39 426.66Z" fill="#3D54D0"/>
<path d="M643.455 483.134H610.739V486.115H643.455V483.134Z" fill="#2B1710"/>
<path d="M610.738 486.114C599.602 497.345 593.952 518.696 594.886 534.074C595.831 549.463 595.513 676.425 595.513 676.425H623.546L625.327 530.312L634.847 676.425H664.551C664.551 676.425 662.462 543.699 659.527 522.348C656.603 500.997 643.444 486.104 643.444 486.104H610.738V486.114Z" fill="#164283"/>
<path d="M659.23 669.77C659.12 669.77 659.032 669.682 659.032 669.572C658.999 668.451 655.569 556.966 654.327 544.558L654.305 544.294C653.074 531.974 650.194 503.121 640.871 489.283C640.805 489.195 640.838 489.063 640.926 489.008C641.014 488.942 641.146 488.974 641.201 489.062C650.578 502.977 653.47 531.908 654.701 544.261L654.723 544.525C655.965 556.944 659.395 668.439 659.428 669.561C659.428 669.682 659.34 669.77 659.23 669.77Z" fill="#BFBFBF"/>
<path d="M663.144 671.025H635.056C634.946 671.025 634.858 670.937 634.858 670.827C634.858 670.717 634.946 670.629 635.056 670.629H663.144C663.254 670.629 663.342 670.717 663.342 670.827C663.353 670.937 663.254 671.025 663.144 671.025Z" fill="#BFBFBF"/>
<path d="M622.348 671.025H596.304C596.194 671.025 596.106 670.937 596.106 670.827C596.106 670.717 596.194 670.629 596.304 670.629H622.348C622.458 670.629 622.545 670.717 622.545 670.827C622.556 670.937 622.458 671.025 622.348 671.025Z" fill="#BFBFBF"/>
<path d="M625.129 528.102C625.03 528.102 624.942 528.025 624.931 527.926L623.381 513.626C622.853 513.516 621.028 513.109 620.468 512.68C619.566 512.009 620.687 489.657 620.698 489.426C620.709 489.316 620.797 489.228 620.907 489.239C621.017 489.25 621.105 489.338 621.094 489.448C620.731 495.674 620.215 511.547 620.72 512.383C621.182 512.724 622.952 513.142 623.601 513.263C623.689 513.285 623.755 513.351 623.766 513.439L625.338 527.882C625.349 527.992 625.272 528.091 625.162 528.102C625.14 528.102 625.14 528.102 625.129 528.102Z" fill="#BFBFBF"/>
<path d="M648.193 509.577H648.182C639.046 508.851 633.923 502.339 632.934 490.239C632.923 490.129 633.011 490.03 633.121 490.019C633.231 490.008 633.33 490.096 633.341 490.206C634.308 502.086 639.31 508.466 648.215 509.181C648.325 509.192 648.413 509.291 648.402 509.401C648.38 509.5 648.292 509.577 648.193 509.577Z" fill="#BFBFBF"/>
<path d="M664.65 559.584H622.567L625.415 530.302H667.508L664.65 559.584Z" fill="#2B1710"/>
<path d="M667.508 530.302H669.641L673.818 558.979L664.65 559.584L667.508 530.302Z" fill="#402218"/>
<path d="M668.267 555.37C668.245 555.37 668.223 555.37 668.212 555.359C665.782 554.501 668.168 534.635 668.443 532.369C668.454 532.27 668.531 532.204 668.641 532.215C668.74 532.226 668.806 532.314 668.795 532.413C667.706 541.18 666.684 554.446 668.333 555.029C668.421 555.062 668.476 555.161 668.443 555.26C668.41 555.326 668.344 555.37 668.267 555.37Z" fill="#2B1710"/>
<path d="M625.415 530.302L623.557 550.52H665.552L667.508 530.302H625.415Z" fill="#4A281C"/>
<path d="M634.99 548.286H632.758V553.676H634.99V548.286Z" fill="#5B7080"/>
<path d="M652.546 548.012H650.315V553.402H652.546V548.012Z" fill="#5B7080"/>
<path d="M655.141 530.038C654.745 530.038 654.426 529.719 654.426 529.323V529.048C654.426 525.088 651.205 521.854 647.236 521.854H644.081C640.124 521.854 636.892 525.077 636.892 529.048C636.892 529.444 636.573 529.763 636.177 529.763C635.781 529.763 635.463 529.444 635.463 529.048C635.463 524.296 639.321 520.435 644.07 520.435H647.226C651.975 520.435 655.833 524.296 655.833 529.048V529.323C655.855 529.719 655.536 530.038 655.141 530.038Z" fill="#2B1710"/>
<path d="M639.068 528.586H634.33V530.445H639.068V528.586Z" fill="#5B7080"/>
<path d="M657.592 528.586H652.854V530.445H657.592V528.586Z" fill="#5B7080"/>
<path d="M661.792 462.377C661.792 462.377 665.761 475.478 665.519 487.017C665.277 498.556 659.989 514.418 659.989 516.101C659.747 520.908 655.79 523.427 652.898 523.075C650.018 522.712 648.149 522.349 647.852 523.02C647.49 524.043 645.566 525.605 644.664 525.363C643.587 526.023 642.861 525.66 642.861 525.66C642.081 526.199 641.355 525.418 641.355 525.418C641.355 525.418 641.355 522.954 641.597 522.47C641.839 521.986 642.378 520.424 642.378 520.424C642.378 520.424 641.113 521.568 641.058 522.162C641.003 522.767 641.179 524.681 640.333 524.868C639.728 523.064 639.915 521.502 639.97 520.666C640.025 519.83 641.949 516.816 643.576 516.519C645.203 516.222 651.744 516.343 652.228 515.738C652.711 515.133 650.722 486.049 650.183 483.354C649.644 480.648 644.236 465.149 644.236 465.149L661.792 462.377Z" fill="#FFB39B"/>
<path d="M642.762 519.797C642.806 519.797 642.861 519.775 642.894 519.742L643.84 518.708C643.906 518.642 643.895 518.532 643.829 518.466C643.763 518.4 643.653 518.411 643.587 518.477L642.641 519.511C642.576 519.577 642.587 519.687 642.652 519.753C642.685 519.786 642.729 519.797 642.762 519.797Z" fill="#E0B3A8"/>
<path d="M643.07 524.835C643.07 524.835 643.433 522.58 643.477 522.316C643.521 522.151 644.203 521.117 644.84 520.226C644.895 520.149 644.873 520.039 644.796 519.984C644.719 519.929 644.609 519.951 644.554 520.028C644.137 520.611 643.18 521.986 643.125 522.261C643.081 522.536 642.719 524.791 642.719 524.791L643.07 524.835Z" fill="#E0B3A8"/>
<path d="M644.708 524.67C644.785 524.67 644.851 524.626 644.873 524.549C644.873 524.538 645.324 523.196 645.412 522.976C645.467 522.844 646.181 521.953 646.83 521.172C646.896 521.095 646.885 520.985 646.808 520.93C646.731 520.864 646.621 520.875 646.566 520.952C646.247 521.337 645.192 522.613 645.093 522.844C645.005 523.075 644.565 524.373 644.554 524.428C644.521 524.516 644.576 524.615 644.664 524.648C644.664 524.659 644.686 524.67 644.708 524.67Z" fill="#E0B3A8"/>
<path d="M645.719 433.326C636.815 439.728 637.925 453.368 642.377 464.225C646.83 475.082 650.447 486.214 650.447 507.378C659.076 509.05 662.407 507.939 662.407 507.939C662.407 507.939 669.08 488.733 665.189 469.802C661.297 450.86 652.953 433.326 645.719 433.326Z" fill="#7D9AFF"/>
<path d="M605.835 416.616C603.824 414.691 604.56 411.589 607.385 409.939C610.222 408.289 612.684 406.188 610.673 402.712L625.294 390.458C630.867 389.633 637.628 394.935 638.09 400.149C638.552 405.363 640.377 406.551 642.388 407.739C644.4 408.927 644.675 411.853 643.213 414.878C641.751 417.892 644.488 421.742 644.488 421.742H605.088C606.847 421.005 607.847 418.541 605.835 416.616Z" fill="#2B1710"/>
<path d="M626.954 416.65C633.726 417.838 637.672 411.524 635.705 406.563C636.254 396.388 631.923 386.378 616.719 391.823C609.156 392.769 606.242 402.779 612.465 405.386C620.721 412.712 626.954 416.65 626.954 416.65Z" fill="#2B1710"/>
<path d="M620.885 420.555C621.358 423.393 621.732 426.176 617.345 426.66C612.695 433.997 614.707 440.124 616.807 440.773C622.26 442.445 636.111 428.497 636.078 427.122C636.078 426.891 632.648 426.121 631.406 423.932C630.164 421.743 629.57 416.188 630.043 408.73C627.152 409.5 626.14 407.19 626.085 403.23C626.03 399.27 624.139 392.945 616.455 393.946C613.564 397.499 612.025 399.743 612.256 404.352C612.497 408.961 611.981 412.239 612.53 414.439C613.08 416.628 615.444 420.676 620.885 420.555Z" fill="#FFB39B"/>
<path d="M631.527 412.657C632.832 412.657 633.891 411.598 633.891 410.292C633.891 408.986 632.832 407.927 631.527 407.927C630.222 407.927 629.163 408.986 629.163 410.292C629.163 411.598 630.222 412.657 631.527 412.657Z" fill="#FFB39B"/>
<path d="M631.021 411.524C630.966 411.524 630.9 411.491 630.878 411.436C630.845 411.359 630.878 411.271 630.955 411.238C631.153 411.15 631.274 411.018 631.285 410.875C631.296 410.721 631.197 410.545 631.043 410.435C630.867 410.325 630.669 410.314 630.483 410.413C630.439 410.435 630.373 410.435 630.329 410.402C630.285 410.369 630.252 410.325 630.252 410.27C630.274 409.709 630.658 409.247 631.241 409.071C631.846 408.884 632.461 409.071 632.813 409.533C632.868 409.599 632.846 409.698 632.78 409.753C632.714 409.808 632.615 409.786 632.56 409.72C632.23 409.28 631.692 409.258 631.329 409.368C631.032 409.456 630.702 409.687 630.593 410.05C630.801 410.017 631.021 410.061 631.197 410.182C631.45 410.347 631.593 410.633 631.571 410.897C631.56 411.051 631.472 411.337 631.054 411.524C631.065 411.524 631.043 411.524 631.021 411.524Z" fill="#E0B3A8"/>
<path d="M621.358 420.555C621.369 420.555 621.391 420.555 621.402 420.544C625.316 419.433 628.449 416.133 629.383 412.151C629.405 412.074 629.35 411.986 629.273 411.964C629.197 411.942 629.109 411.997 629.087 412.074C628.174 415.957 625.118 419.158 621.314 420.247C621.237 420.269 621.182 420.357 621.215 420.434C621.226 420.511 621.292 420.555 621.358 420.555Z" fill="#E0B3A8"/>
<path d="M625.173 403.56C625.228 403.56 625.272 403.538 625.305 403.483C625.349 403.406 625.316 403.318 625.25 403.274C623.282 402.152 620.94 402.064 619.973 402.35C619.896 402.372 619.852 402.46 619.874 402.537C619.896 402.614 619.984 402.658 620.061 402.636C620.852 402.394 623.139 402.405 625.107 403.527C625.129 403.549 625.151 403.56 625.173 403.56Z" fill="#2B1710"/>
<path d="M612.849 403.713C612.893 403.713 612.937 403.691 612.97 403.658C612.992 403.625 613.608 402.845 615.554 403.087C615.642 403.098 615.708 403.042 615.719 402.954C615.73 402.866 615.675 402.8 615.587 402.789C613.509 402.525 612.805 403.383 612.728 403.482C612.673 403.548 612.695 403.647 612.761 403.691C612.783 403.702 612.816 403.713 612.849 403.713Z" fill="#2B1710"/>
<path d="M616.356 411.755C616.4 411.755 616.444 411.733 616.477 411.7C616.532 411.634 616.521 411.535 616.455 411.491C615.674 410.864 614.806 410.105 614.619 409.841C614.751 409.808 615.048 409.808 615.268 409.808C615.817 409.797 616.433 409.786 616.796 409.577C617.598 409.126 616.829 405.705 616.114 404.099C616.081 404.022 615.993 403.989 615.916 404.022C615.839 404.055 615.806 404.143 615.839 404.22C616.664 406.09 617.137 409.038 616.653 409.313C616.356 409.478 615.751 409.489 615.268 409.5C614.663 409.511 614.289 409.522 614.289 409.797C614.289 410.083 615.367 411.007 616.279 411.733C616.29 411.744 616.323 411.755 616.356 411.755Z" fill="#2B1710"/>
<path d="M620.94 406.684C620.94 407.586 621.347 408.312 621.853 408.312C622.359 408.312 622.765 407.586 622.765 406.684C622.765 405.782 622.359 405.056 621.853 405.056C621.347 405.056 620.94 405.793 620.94 406.684Z" fill="#2B1710"/>
<path d="M622.062 408.862C622.38 408.862 623.073 408.73 623.293 407.575C623.304 407.531 623.271 407.498 623.238 407.487C623.194 407.476 623.161 407.509 623.15 407.542C622.93 408.664 622.271 408.73 621.985 408.708C621.941 408.708 621.908 408.73 621.908 408.774C621.908 408.818 621.93 408.851 621.974 408.851C622.007 408.862 622.029 408.862 622.062 408.862Z" fill="#E0B3A8"/>
<path d="M614.003 406.882C614.003 407.784 614.41 408.51 614.916 408.51C615.422 408.51 615.828 407.784 615.828 406.882C615.828 405.98 615.422 405.254 614.916 405.254C614.41 405.254 614.003 405.991 614.003 406.882Z" fill="#2B1710"/>
<path d="M615.136 409.06C615.455 409.06 616.147 408.928 616.367 407.773C616.378 407.729 616.345 407.696 616.312 407.685C616.268 407.674 616.235 407.707 616.224 407.74C616.004 408.862 615.345 408.928 615.059 408.906C615.015 408.906 614.982 408.928 614.982 408.972C614.982 409.016 615.004 409.049 615.048 409.049C615.07 409.06 615.103 409.06 615.136 409.06Z" fill="#E0B3A8"/>
<path d="M623.095 410.325C623.458 410.809 623.7 411.238 623.634 411.293C623.568 411.337 623.227 410.985 622.864 410.501C622.501 410.017 622.26 409.588 622.326 409.533C622.392 409.478 622.732 409.841 623.095 410.325Z" fill="#FF7E57"/>
<path d="M622.172 410.434C622.534 410.918 622.776 411.347 622.71 411.402C622.644 411.446 622.303 411.094 621.941 410.61C621.578 410.126 621.336 409.697 621.402 409.642C621.468 409.598 621.809 409.95 622.172 410.434Z" fill="#FF7E57"/>
<path d="M621.149 410.534C621.512 411.018 621.754 411.447 621.688 411.502C621.622 411.546 621.281 411.194 620.918 410.71C620.556 410.226 620.314 409.797 620.38 409.742C620.435 409.698 620.787 410.05 621.149 410.534Z" fill="#FF7E57"/>
<path d="M631.01 414.637C631.617 414.637 632.11 414.144 632.11 413.537C632.11 412.929 631.617 412.437 631.01 412.437C630.403 412.437 629.911 412.929 629.911 413.537C629.911 414.144 630.403 414.637 631.01 414.637Z" fill="white"/>
<path d="M621.413 413.724C617.906 412.228 614.531 412.283 614.817 413.526C614.619 416.54 618.368 419.73 621.413 413.724Z" fill="#E0B3A8"/>
<path d="M617.851 418.377C617.488 418.377 617.027 418.333 616.554 418.157C616.488 418.135 616.455 418.069 616.488 418.003C616.51 417.937 616.576 417.904 616.642 417.937C617.609 418.3 618.566 418.08 618.577 418.069C618.643 418.058 618.709 418.091 618.72 418.157C618.731 418.223 618.698 418.289 618.632 418.3C618.599 418.311 618.291 418.377 617.851 418.377Z" fill="#E0B3A8"/>
<path d="M621.413 413.723L614.817 413.525C614.817 416.484 619.127 417.87 621.413 413.723Z" fill="#2B1710"/>
<path d="M616.037 415.78C616.917 414.526 618.192 413.987 618.192 413.987L620.226 413.69L621.424 413.723C619.885 416.495 617.477 416.759 616.037 415.78Z" fill="#7D2727"/>
<path d="M614.817 413.525L621.413 413.723C619.874 414.79 615.818 415.076 614.817 413.525Z" fill="white"/>
<path d="M616.455 393.946C616.895 400.37 625.865 401.305 627.492 400.953C629.119 400.601 624.865 391.13 616.455 393.946Z" fill="#2B1710"/>
<path d="M602.504 421.798C602.526 421.798 602.559 421.798 602.581 421.787C603.263 421.633 604.219 420.709 604.494 419.642C604.681 418.927 604.659 417.849 603.483 416.793C602.515 415.913 602.054 414.725 602.241 413.548C602.482 411.92 603.901 410.424 606.209 409.346C611.662 406.805 611.299 402.988 610.101 399.248C610.046 399.061 609.837 398.962 609.661 399.017C609.474 399.072 609.375 399.27 609.43 399.457C610.749 403.538 610.618 406.508 605.912 408.708C603.384 409.885 601.834 411.568 601.548 413.438C601.328 414.857 601.867 416.265 603.021 417.31C603.747 417.97 604.022 418.696 603.824 419.466C603.593 420.368 602.779 421.017 602.428 421.105C602.241 421.149 602.12 421.336 602.164 421.523C602.197 421.688 602.34 421.798 602.504 421.798Z" fill="#2B1710"/>
<path d="M600.581 415.484C600.658 415.484 600.745 415.45 600.811 415.395C600.954 415.263 600.976 415.044 600.844 414.901C600.174 414.131 599.943 413.25 600.163 412.304C600.581 410.555 602.482 408.751 605.033 407.706C609.166 406.001 609.98 404.032 609.98 401.205C609.98 401.007 609.826 400.854 609.628 400.854C609.43 400.854 609.276 401.007 609.276 401.205C609.276 403.856 608.584 405.484 604.758 407.057C602.01 408.19 599.943 410.182 599.47 412.151C599.195 413.317 599.481 414.427 600.306 415.362C600.383 415.439 600.482 415.484 600.581 415.484Z" fill="#2B1710"/>
<path d="M647.269 421.457C647.467 421.457 647.621 421.303 647.621 421.105C647.621 420.907 647.467 420.753 647.269 420.753C646.39 420.753 645.565 420.093 645.049 418.993C644.4 417.618 644.312 415.561 645.554 414.054C646.753 412.591 647.247 410.952 646.918 409.423C646.632 408.059 645.708 406.926 644.345 406.244C643.883 406.013 643.378 405.793 642.872 405.573C640.366 404.484 637.771 403.362 637.551 399.743C637.54 399.545 637.386 399.402 637.178 399.413C636.98 399.424 636.837 399.589 636.848 399.787C637.09 403.824 640.014 405.1 642.586 406.211C643.081 406.431 643.576 406.64 644.026 406.871C645.203 407.465 645.983 408.422 646.236 409.566C646.511 410.875 646.082 412.305 645.016 413.603C643.576 415.352 643.675 417.717 644.411 419.29C645.049 420.643 646.115 421.457 647.269 421.457Z" fill="#2B1710"/>
<path d="M647.401 413.427C647.467 413.427 647.533 413.405 647.588 413.372C649.028 412.481 649.765 410.787 649.512 408.961C649.259 407.135 647.94 404.88 644.972 404.022C640.179 402.636 638.453 401.162 636.903 397.169C636.837 396.993 636.628 396.894 636.452 396.971C636.276 397.037 636.177 397.246 636.254 397.422C637.881 401.624 639.794 403.252 644.774 404.693C647.423 405.463 648.6 407.443 648.82 409.049C649.039 410.622 648.435 412.008 647.226 412.767C647.061 412.866 647.006 413.086 647.116 413.251C647.171 413.372 647.281 413.427 647.401 413.427Z" fill="#2B1710"/>
<path d="M627.229 410.05C627.877 410.05 628.812 409.654 630.054 408.158C630.175 408.004 630.153 407.784 630.01 407.663C629.856 407.542 629.636 407.564 629.515 407.707C628.438 409.005 627.449 409.588 626.877 409.258C626.008 408.763 625.832 406.255 627.174 402.416C627.24 402.229 627.141 402.031 626.954 401.965C626.767 401.899 626.569 401.998 626.503 402.185C625.14 406.079 625.151 409.093 626.525 409.863C626.701 409.973 626.932 410.05 627.229 410.05Z" fill="#2B1710"/>
<path d="M620.764 400.26C621.941 400.26 623.194 399.952 624.458 399.325C624.634 399.237 624.7 399.028 624.612 398.852C624.524 398.676 624.315 398.61 624.139 398.698C621.787 399.864 619.489 399.842 617.84 398.654C616.466 397.675 615.718 395.97 615.938 394.32C615.96 394.133 615.828 393.957 615.641 393.924C615.455 393.902 615.279 394.034 615.246 394.221C614.993 396.157 615.828 398.071 617.433 399.215C618.39 399.919 619.533 400.26 620.764 400.26Z" fill="#2B1710"/>
<path d="M438.266 537.814C439.815 537.814 441.07 536.558 441.07 535.009C441.07 533.46 439.815 532.204 438.266 532.204C436.718 532.204 435.463 533.46 435.463 535.009C435.463 536.558 436.718 537.814 438.266 537.814Z" fill="#2D71F0"/>
<path d="M438.684 535.384C439.091 535.384 439.476 535.153 439.652 534.768L462.87 487.666H518.98C519.573 487.666 520.057 487.182 520.057 486.588C520.057 485.994 519.573 485.51 518.98 485.51H462.199C461.781 485.51 461.408 485.752 461.232 486.126L437.728 533.833C437.475 534.372 437.695 535.01 438.234 535.263C438.366 535.351 438.53 535.384 438.684 535.384Z" fill="#2D71F0"/>
<path d="M511.328 458.108H473.665C469.048 458.108 465.31 461.848 465.31 466.468V474.432C465.31 479.052 469.048 482.792 473.665 482.792H511.328C515.946 482.792 519.683 479.052 519.683 474.432V466.468C519.683 461.859 515.935 458.108 511.328 458.108Z" fill="#6BB0FF"/>
</svg>
