<svg width="431" height="960" viewBox="0 0 431 960" fill="none" xmlns="http://www.w3.org/2000/svg">
<path d="M0 11C0 -2.25481 10.7452 -13 24 -13H211C224.255 -13 235 -2.25483 235 11V969C235 982.255 224.255 993 211 993H0V11Z" fill="#F2F7FF"/>
<path d="M253 11C253 -2.25481 263.745 -13 277 -13H337C350.255 -13 361 -2.25483 361 11V969C361 982.255 350.255 993 337 993H253V11Z" fill="#F2F7FF"/>
<path d="M379 11C379 -2.25481 389.745 -13 403 -13H407C420.255 -13 431 -2.25483 431 11V969C431 982.255 420.255 993 407 993H379V11Z" fill="#F2F7FF"/>
</svg>
